<?xml version="1.0" encoding="UTF-8" standalone="no"?><!DOCTYPE svg PUBLIC "-//W3C//DTD SVG 1.1//EN" "http://www.w3.org/Graphics/SVG/1.1/DTD/svg11.dtd"><svg width="100%" height="100%" viewBox="0 0 800 800" version="1.1" xmlns="http://www.w3.org/2000/svg" xmlns:xlink="http://www.w3.org/1999/xlink" xml:space="preserve" xmlns:serif="http://www.serif.com/" style="fill-rule:evenodd;clip-rule:evenodd;stroke-linejoin:round;stroke-miterlimit:2;"><rect id="favicon" x="0" y="0" width="800" height="800" style="fill:none;"/><path d="M506.275,62l0,66.349c0,0.001 -0.325,267.913 -0.325,267.913c-0.682,10.331 -5.67,98.722 16.562,186.059c16.752,65.809 49.242,130.291 107.047,164.974c12.305,7.383 28.289,3.387 35.672,-8.918c7.383,-12.305 3.387,-28.289 -8.918,-35.672c-46.198,-27.718 -70.02,-80.617 -83.408,-133.212c-21.544,-84.633 -15.031,-170.352 -15.031,-170.352c0.049,-0.646 0.074,-1.293 0.075,-1.941l0.326,-268.835l0,-66.365c0,-14.35 -11.65,-26 -26,-26c-14.35,0 -26,11.65 -26,26Z" style="fill:#fff;"/><g><path d="M400,127.5c150.397,0 272.5,122.103 272.5,272.5c0,150.397 -122.103,272.5 -272.5,272.5c-150.397,-0 -272.5,-122.103 -272.5,-272.5c0,-150.397 122.103,-272.5 272.5,-272.5Zm0,168c57.675,0 104.5,46.825 104.5,104.5c0,57.675 -46.825,104.5 -104.5,104.5c-57.675,0 -104.5,-46.825 -104.5,-104.5c0,-57.675 46.825,-104.5 104.5,-104.5Z" style="fill:#fffefe;"/><circle cx="400" cy="400" r="51" style="fill:#fffefe;"/></g></svg>