<?xml version="1.0" encoding="UTF-8" standalone="no"?>
<!DOCTYPE svg PUBLIC "-//W3C//DTD SVG 1.1//EN" "http://www.w3.org/Graphics/SVG/1.1/DTD/svg11.dtd">
<svg width="100%" height="100%" viewBox="0 0 2962 783" version="1.1" xmlns="http://www.w3.org/2000/svg" xmlns:xlink="http://www.w3.org/1999/xlink" xml:space="preserve" xmlns:serif="http://www.serif.com/" style="fill-rule:evenodd;clip-rule:evenodd;stroke-linejoin:round;stroke-miterlimit:2;">
    <g transform="matrix(1,0,0,1,-866,-3020.73)">
        <g id="logo" transform="matrix(1.13183,0,0,1.05999,867.132,2001.01)">
            <rect x="-1" y="962" width="2617" height="738" style="fill:none;"/>
            <g transform="matrix(14.3568,0.114641,0.0753212,-10.7545,-1549.1,2924.01)">
                <path d="M132.261,179.26L132.296,172.563C132.296,172.563 132.4,149.062 132.4,149.062C132.362,148.156 132.096,140.399 133.505,132.753C134.566,126.991 136.595,121.357 140.168,118.352C140.928,117.713 141.91,118.074 142.359,119.158C142.807,120.242 142.554,121.641 141.794,122.281C138.938,124.682 137.448,129.307 136.6,133.911C135.235,141.321 135.596,148.844 135.596,148.844C135.599,148.901 135.6,148.957 135.6,149.014L135.496,172.596L135.461,179.294C135.455,180.553 134.732,181.567 133.849,181.558C132.966,181.548 132.255,180.519 132.261,179.26Z" style="fill:rgb(82,82,82);"/>
            </g>
            <g transform="matrix(53.6208,0,0,57.2548,-48869.1,-95554.5)">
                <g transform="matrix(12,0,0,12,923.238,1696.82)">
                    <path d="M0.487,-0.069L0.487,-0L0.342,-0L0.342,-0.115L0.169,-0.006C0.148,0.005 0.129,0.01 0.111,0.01C0.092,0.01 0.078,0.003 0.067,-0.01C0.056,-0.023 0.05,-0.039 0.05,-0.056L0.05,-0.406C0.05,-0.437 0.055,-0.458 0.064,-0.469C0.08,-0.49 0.105,-0.5 0.14,-0.5L0.342,-0.5L0.342,-0.682L0.276,-0.682L0.276,-0.75L0.424,-0.75L0.424,-0.069L0.487,-0.069ZM0.342,-0.432L0.13,-0.432L0.13,-0.063L0.342,-0.195L0.342,-0.432Z" style="fill:rgb(34,34,34);fill-rule:nonzero;"/>
                </g>
                <g transform="matrix(12,0,0,12,929.562,1696.82)">
                    <path d="M0.133,-0C0.099,-0 0.075,-0.008 0.061,-0.024C0.047,-0.039 0.04,-0.061 0.04,-0.089L0.04,-0.411C0.04,-0.438 0.046,-0.459 0.059,-0.476C0.071,-0.492 0.096,-0.5 0.133,-0.5L0.318,-0.5C0.355,-0.5 0.379,-0.492 0.392,-0.476C0.405,-0.459 0.411,-0.438 0.411,-0.411L0.411,-0.089C0.411,-0.061 0.404,-0.039 0.39,-0.024C0.376,-0.008 0.352,-0 0.318,-0L0.133,-0ZM0.121,-0.068L0.33,-0.068L0.33,-0.432L0.121,-0.432L0.121,-0.068Z" style="fill:rgb(34,34,34);fill-rule:nonzero;"/>
                </g>
                <g transform="matrix(12,0,0,12,934.974,1696.82)">
                    <path d="M0.389,-0.088C0.389,-0.029 0.36,-0 0.303,-0L0.061,-0L0.061,-0.151L0.129,-0.151L0.129,-0.068L0.309,-0.068L0.309,-0.151L0.145,-0.254C0.128,-0.265 0.114,-0.273 0.102,-0.28C0.09,-0.287 0.08,-0.293 0.072,-0.3C0.057,-0.313 0.05,-0.331 0.05,-0.354L0.05,-0.411C0.05,-0.439 0.055,-0.458 0.064,-0.469C0.082,-0.49 0.109,-0.5 0.144,-0.5L0.377,-0.5L0.377,-0.35L0.309,-0.35L0.309,-0.432L0.129,-0.432L0.129,-0.348L0.299,-0.242C0.313,-0.233 0.326,-0.226 0.337,-0.22C0.347,-0.213 0.357,-0.207 0.364,-0.2C0.381,-0.186 0.389,-0.169 0.389,-0.15L0.389,-0.088Z" style="fill:rgb(34,34,34);fill-rule:nonzero;"/>
                </g>
                <g transform="matrix(12,0,0,12,940.242,1696.82)">
                    <path d="M0.389,-0.088C0.389,-0.029 0.36,-0 0.303,-0L0.061,-0L0.061,-0.151L0.129,-0.151L0.129,-0.068L0.309,-0.068L0.309,-0.151L0.145,-0.254C0.128,-0.265 0.114,-0.273 0.102,-0.28C0.09,-0.287 0.08,-0.293 0.072,-0.3C0.057,-0.313 0.05,-0.331 0.05,-0.354L0.05,-0.411C0.05,-0.439 0.055,-0.458 0.064,-0.469C0.082,-0.49 0.109,-0.5 0.144,-0.5L0.377,-0.5L0.377,-0.35L0.309,-0.35L0.309,-0.432L0.129,-0.432L0.129,-0.348L0.299,-0.242C0.313,-0.233 0.326,-0.226 0.337,-0.22C0.347,-0.213 0.357,-0.207 0.364,-0.2C0.381,-0.186 0.389,-0.169 0.389,-0.15L0.389,-0.088Z" style="fill:rgb(34,34,34);fill-rule:nonzero;"/>
                </g>
                <g transform="matrix(12,0,0,12,945.51,1696.82)">
                    <path d="M0.195,-0.068L0.26,-0.068L0.26,-0L0.05,-0L0.05,-0.068L0.113,-0.068L0.113,-0.432L0.05,-0.432L0.05,-0.5L0.195,-0.5L0.195,-0.068ZM0.154,-0.684C0.168,-0.684 0.18,-0.679 0.19,-0.669C0.199,-0.658 0.204,-0.646 0.204,-0.632C0.204,-0.617 0.199,-0.605 0.19,-0.596C0.18,-0.586 0.168,-0.581 0.154,-0.581C0.139,-0.581 0.127,-0.586 0.118,-0.596C0.108,-0.605 0.103,-0.617 0.103,-0.632C0.103,-0.646 0.108,-0.658 0.118,-0.669C0.128,-0.679 0.14,-0.684 0.154,-0.684Z" style="fill:rgb(34,34,34);fill-rule:nonzero;"/>
                </g>
                <g transform="matrix(12,0,0,12,949.11,1696.82)">
                    <path d="M0.05,-0.402C0.05,-0.468 0.084,-0.501 0.153,-0.501L0.322,-0.501C0.355,-0.501 0.378,-0.495 0.393,-0.482C0.408,-0.469 0.415,-0.446 0.415,-0.412L0.415,-0.319L0.13,-0.139L0.13,-0.068L0.336,-0.068L0.336,-0.126L0.415,-0.126L0.415,-0.073C0.415,-0.053 0.409,-0.036 0.397,-0.022C0.384,-0.007 0.364,-0 0.335,-0L0.13,-0C0.101,-0 0.081,-0.007 0.069,-0.022C0.056,-0.036 0.05,-0.053 0.05,-0.073L0.05,-0.402ZM0.13,-0.22L0.335,-0.349L0.335,-0.432L0.13,-0.432L0.13,-0.22Z" style="fill:rgb(34,34,34);fill-rule:nonzero;"/>
                </g>
                <g transform="matrix(12,0,0,12,954.69,1696.82)">
                    <path d="M0.343,-0.5C0.395,-0.5 0.421,-0.474 0.421,-0.423L0.421,-0.334L0.34,-0.334L0.34,-0.431L0.184,-0.332L0.184,-0.068L0.233,-0.068L0.233,-0L0.04,-0L0.04,-0.068L0.103,-0.068L0.103,-0.433L0.04,-0.433L0.04,-0.501L0.184,-0.501L0.184,-0.413L0.307,-0.49C0.318,-0.497 0.33,-0.5 0.343,-0.5Z" style="fill:rgb(34,34,34);fill-rule:nonzero;"/>
                </g>
            </g>
            <g transform="matrix(0.971877,0,0,1.03774,-450.184,-652.188)">
                <circle cx="2449" cy="1748" r="35" style="fill:rgb(255,74,74);"/>
            </g>
            <g transform="matrix(-0.853404,0,0,-0.911242,2294.02,3096.97)">
                <circle cx="2374" cy="1928" r="44" style="fill:rgb(80,80,80);"/>
            </g>
            <g transform="matrix(0.883525,0,0,0.943404,-766.132,-817.944)">
                <path d="M1170.5,2015C1320.9,2015 1443,2137.1 1443,2287.5C1443,2437.9 1320.9,2560 1170.5,2560C1020.1,2560 898,2437.9 898,2287.5C898,2137.1 1020.1,2015 1170.5,2015ZM1170.5,2196C1221,2196 1262,2237 1262,2287.5C1262,2338 1221,2379 1170.5,2379C1120,2379 1079,2338 1079,2287.5C1079,2237 1120,2196 1170.5,2196Z" style="fill:url(#_Radial1);"/>
            </g>
        </g>
    </g>
    <defs>
        <radialGradient id="_Radial1" cx="0" cy="0" r="1" gradientUnits="userSpaceOnUse" gradientTransform="matrix(272.5,0,0,272.5,1751.5,2338.5)"><stop offset="0" style="stop-color:rgb(83,83,83);stop-opacity:1"/><stop offset="1" style="stop-color:rgb(34,34,34);stop-opacity:1"/></radialGradient>
    </defs>
</svg>
