<?xml version="1.0" encoding="UTF-8" standalone="no"?><!DOCTYPE svg PUBLIC "-//W3C//DTD SVG 1.1//EN" "http://www.w3.org/Graphics/SVG/1.1/DTD/svg11.dtd"><svg width="100%" height="100%" viewBox="0 0 22 28" version="1.1" xmlns="http://www.w3.org/2000/svg" xmlns:xlink="http://www.w3.org/1999/xlink" xml:space="preserve" xmlns:serif="http://www.serif.com/" style="fill-rule:evenodd;clip-rule:evenodd;stroke-linejoin:round;stroke-miterlimit:2;"><g id="map-marker"><path d="M9.748,26.475c-7.378,-10.696 -8.748,-11.794 -8.748,-15.725c0,-5.385 4.365,-9.75 9.75,-9.75c5.385,-0 9.75,4.365 9.75,9.75c0,3.931 -1.37,5.029 -8.748,15.725c-0.484,0.7 -1.52,0.7 -2.004,0Zm1.002,-9.094c3.662,0 6.631,-2.969 6.631,-6.631c0,-3.662 -2.969,-6.631 -6.631,-6.631c-3.662,-0 -6.631,2.969 -6.631,6.631c-0,3.662 2.969,6.631 6.631,6.631Z" style="fill:url(#_Linear1);fill-rule:nonzero;stroke:#061624;stroke-width:0.4px;"/></g><defs><linearGradient id="_Linear1" x1="0" y1="0" x2="1" y2="0" gradientUnits="userSpaceOnUse" gradientTransform="matrix(13,29,29,-13,3,-2)"><stop offset="0" style="stop-color:#000;stop-opacity:1"/><stop offset="1" style="stop-color:#8ed8ff;stop-opacity:1"/></linearGradient></defs></svg>