<?xml version="1.0" encoding="UTF-8" standalone="no"?>
<!DOCTYPE svg PUBLIC "-//W3C//DTD SVG 1.1//EN"
 "http://www.w3.org/Graphics/SVG/1.1/DTD/svg11.dtd">
<!-- Generated by graphviz version 2.50.0 (20211204.2007)
 -->
<!-- Title: G Pages: 1 -->
<svg width="1048pt" height="308pt"
 viewBox="0.00 0.00 1048.28 308.17" xmlns="http://www.w3.org/2000/svg" xmlns:xlink="http://www.w3.org/1999/xlink">
<g id="graph0" class="graph" transform="scale(1 1) rotate(0) translate(4 304.17)">
<title>G</title>
<polygon fill="white" stroke="transparent" points="-4,4 -4,-304.17 1044.28,-304.17 1044.28,4 -4,4"/>
<!-- start -->
<g id="node1" class="node">
<title>start</title>
<ellipse fill="none" stroke="black" cx="22" cy="-198.17" rx="18" ry="18"/>
<ellipse fill="none" stroke="black" cx="22" cy="-198.17" rx="22" ry="22"/>
</g>
<!-- draft -->
<g id="node2" class="node">
<title>draft</title>
<ellipse fill="none" stroke="black" cx="143.3" cy="-198.17" rx="27.1" ry="18"/>
<text text-anchor="middle" x="143.3" y="-194.47" font-family="Times,serif" font-size="14.00">draft</text>
</g>
<!-- start&#45;&gt;draft -->
<g id="edge1" class="edge">
<title>start&#45;&gt;draft</title>
<path fill="none" stroke="black" d="M44.05,-198.17C61.03,-198.17 85.31,-198.17 105.49,-198.17"/>
<polygon fill="black" stroke="black" points="105.6,-201.67 115.6,-198.17 105.6,-194.67 105.6,-201.67"/>
<text text-anchor="middle" x="80" y="-201.97" font-family="Times,serif" font-size="14.00">Create</text>
</g>
<!-- draft&#45;&gt;draft -->
<g id="edge2" class="edge">
<title>draft&#45;&gt;draft</title>
<path fill="none" stroke="orange" d="M132.4,-214.83C129.98,-224.79 133.61,-234.17 143.3,-234.17 149.5,-234.17 153.22,-230.32 154.46,-224.94"/>
<polygon fill="orange" stroke="orange" points="157.96,-224.74 154.2,-214.83 150.96,-224.92 157.96,-224.74"/>
<text text-anchor="middle" x="143.3" y="-237.97" font-family="Times,serif" font-size="14.00">Update</text>
</g>
<!-- published -->
<g id="node3" class="node">
<title>published</title>
<ellipse fill="none" stroke="black" cx="305.1" cy="-95.17" rx="44.69" ry="18"/>
<text text-anchor="middle" x="305.1" y="-91.47" font-family="Times,serif" font-size="14.00">published</text>
</g>
<!-- draft&#45;&gt;published -->
<g id="edge3" class="edge">
<title>draft&#45;&gt;published</title>
<path fill="none" stroke="green" d="M152.31,-180.9C159.81,-166.5 172.3,-146.44 188.6,-134.17 207.65,-119.81 232.33,-110.54 253.97,-104.65"/>
<polygon fill="green" stroke="green" points="254.84,-108.04 263.67,-102.18 253.12,-101.26 254.84,-108.04"/>
<text text-anchor="middle" x="209.1" y="-137.97" font-family="Times,serif" font-size="14.00">Publish</text>
</g>
<!-- modified -->
<g id="node4" class="node">
<title>modified</title>
<ellipse fill="none" stroke="black" cx="556.49" cy="-76.17" rx="42.79" ry="18"/>
<text text-anchor="middle" x="556.49" y="-72.47" font-family="Times,serif" font-size="14.00">modified</text>
</g>
<!-- draft&#45;&gt;modified -->
<g id="edge4" class="edge">
<title>draft&#45;&gt;modified</title>
<path fill="none" stroke="green" d="M170.69,-198.78C231.6,-199.11 385.21,-193.7 495.6,-136.17 511.55,-127.85 525.92,-113.8 536.59,-101.39"/>
<polygon fill="green" stroke="green" points="539.39,-103.49 543.04,-93.54 533.98,-99.04 539.39,-103.49"/>
<text text-anchor="middle" x="305.1" y="-198.97" font-family="Times,serif" font-size="14.00">Publish (old version)</text>
</g>
<!-- archived -->
<g id="node5" class="node">
<title>archived</title>
<ellipse fill="none" stroke="black" cx="999.33" cy="-166.17" rx="40.89" ry="18"/>
<text text-anchor="middle" x="999.33" y="-162.47" font-family="Times,serif" font-size="14.00">archived</text>
</g>
<!-- draft&#45;&gt;archived -->
<g id="edge5" class="edge">
<title>draft&#45;&gt;archived</title>
<path fill="none" stroke="red" d="M155.31,-214.67C163.36,-225.58 175.19,-239.43 188.6,-248.17 233.74,-277.61 250.19,-285.17 304.1,-285.17 304.1,-285.17 304.1,-285.17 808.89,-285.17 869.6,-285.17 890.8,-283.2 940.39,-248.17 960.27,-234.12 975.71,-211 985.63,-192.88"/>
<polygon fill="red" stroke="red" points="988.77,-194.42 990.31,-183.94 982.57,-191.17 988.77,-194.42"/>
<text text-anchor="middle" x="556.49" y="-288.97" font-family="Times,serif" font-size="14.00">Archive</text>
</g>
<!-- published&#45;&gt;modified -->
<g id="edge6" class="edge">
<title>published&#45;&gt;modified</title>
<path fill="none" stroke="orange" d="M342.03,-105.45C380.64,-114.84 443.49,-125.28 495.6,-111.17 506.25,-108.28 516.96,-102.97 526.32,-97.35"/>
<polygon fill="orange" stroke="orange" points="528.27,-100.25 534.82,-91.93 524.51,-94.35 528.27,-100.25"/>
<text text-anchor="middle" x="438.1" y="-120.97" font-family="Times,serif" font-size="14.00">Update</text>
</g>
<!-- published&#45;&gt;modified -->
<g id="edge7" class="edge">
<title>published&#45;&gt;modified</title>
<path fill="none" stroke="green" d="M349.25,-91.88C392.28,-88.6 458.38,-83.57 504.1,-80.08"/>
<polygon fill="green" stroke="green" points="504.4,-83.57 514.11,-79.32 503.87,-76.59 504.4,-83.57"/>
<text text-anchor="middle" x="438.1" y="-91.97" font-family="Times,serif" font-size="14.00">Publish (old version)</text>
</g>
<!-- withdrawn -->
<g id="node6" class="node">
<title>withdrawn</title>
<ellipse fill="none" stroke="black" cx="807.89" cy="-58.17" rx="48.19" ry="18"/>
<text text-anchor="middle" x="807.89" y="-54.47" font-family="Times,serif" font-size="14.00">withdrawn</text>
</g>
<!-- published&#45;&gt;withdrawn -->
<g id="edge8" class="edge">
<title>published&#45;&gt;withdrawn</title>
<path fill="none" stroke="purple" d="M327.05,-79.18C341.35,-69.14 361.16,-56.86 380.6,-50.17 510.3,-5.52 675.62,-29.71 757.01,-46.47"/>
<polygon fill="purple" stroke="purple" points="756.48,-49.93 766.99,-48.57 757.92,-43.08 756.48,-49.93"/>
<text text-anchor="middle" x="556.49" y="-28.97" font-family="Times,serif" font-size="14.00">Unpublish</text>
</g>
<!-- modified&#45;&gt;published -->
<g id="edge10" class="edge">
<title>modified&#45;&gt;published</title>
<path fill="none" stroke="green" d="M520.92,-65.98C512.7,-63.98 503.89,-62.19 495.6,-61.17 444.87,-54.91 430.54,-50.31 380.6,-61.17 366.87,-64.15 352.64,-69.9 340.34,-75.83"/>
<polygon fill="green" stroke="green" points="338.71,-72.73 331.35,-80.36 341.86,-78.99 338.71,-72.73"/>
<text text-anchor="middle" x="438.1" y="-64.97" font-family="Times,serif" font-size="14.00">Publish</text>
</g>
<!-- modified&#45;&gt;modified -->
<g id="edge9" class="edge">
<title>modified&#45;&gt;modified</title>
<path fill="none" stroke="orange" d="M545.89,-93.95C544.08,-103.48 547.62,-112.17 556.49,-112.17 561.9,-112.17 565.32,-108.94 566.77,-104.27"/>
<polygon fill="orange" stroke="orange" points="570.27,-104.06 567.1,-93.95 563.28,-103.83 570.27,-104.06"/>
<text text-anchor="middle" x="556.49" y="-115.97" font-family="Times,serif" font-size="14.00">Update</text>
</g>
<!-- modified&#45;&gt;modified -->
<g id="edge11" class="edge">
<title>modified&#45;&gt;modified</title>
<path fill="none" stroke="green" d="M539.56,-92.75C528.95,-110.34 534.6,-130.17 556.49,-130.17 574.62,-130.17 581.61,-116.57 577.45,-101.91"/>
<polygon fill="green" stroke="green" points="580.66,-100.5 573.43,-92.75 574.25,-103.32 580.66,-100.5"/>
<text text-anchor="middle" x="556.49" y="-133.97" font-family="Times,serif" font-size="14.00">Publish (old version)</text>
</g>
<!-- modified&#45;&gt;withdrawn -->
<g id="edge12" class="edge">
<title>modified&#45;&gt;withdrawn</title>
<path fill="none" stroke="purple" d="M599.32,-77.58C634.84,-78.26 687.1,-78.08 732.39,-73.17 740.41,-72.3 748.85,-70.99 757.05,-69.5"/>
<polygon fill="purple" stroke="purple" points="757.72,-72.93 766.88,-67.61 756.4,-66.06 757.72,-72.93"/>
<text text-anchor="middle" x="674.89" y="-80.97" font-family="Times,serif" font-size="14.00">Unpublish</text>
</g>
<!-- archived&#45;&gt;draft -->
<g id="edge17" class="edge">
<title>archived&#45;&gt;draft</title>
<path fill="none" stroke="black" d="M974.79,-180.59C939.89,-200.55 871.79,-234.17 808.89,-234.17 304.1,-234.17 304.1,-234.17 304.1,-234.17 259.32,-234.17 209.17,-220.55 177.2,-210.06"/>
<polygon fill="black" stroke="black" points="178.08,-206.67 167.48,-206.79 175.84,-213.3 178.08,-206.67"/>
<text text-anchor="middle" x="556.49" y="-237.97" font-family="Times,serif" font-size="14.00">Unarchive</text>
</g>
<!-- archived&#45;&gt;published -->
<g id="edge20" class="edge">
<title>archived&#45;&gt;published</title>
<path fill="none" stroke="green" d="M959.18,-169.78C876.5,-176.66 678.16,-189.28 513.6,-169.17 453.14,-161.78 437.31,-158.37 380.6,-136.17 366.32,-130.58 351.38,-122.78 338.65,-115.49"/>
<polygon fill="green" stroke="green" points="340.21,-112.35 329.82,-110.3 336.67,-118.38 340.21,-112.35"/>
<text text-anchor="middle" x="674.89" y="-182.97" font-family="Times,serif" font-size="14.00">Publish</text>
</g>
<!-- archived&#45;&gt;modified -->
<g id="edge21" class="edge">
<title>archived&#45;&gt;modified</title>
<path fill="none" stroke="green" d="M960.1,-160.96C891.03,-151.15 741.12,-128.03 617.39,-96.17 611.54,-94.66 605.43,-92.88 599.45,-91.01"/>
<polygon fill="green" stroke="green" points="600.16,-87.56 589.57,-87.8 598.01,-94.22 600.16,-87.56"/>
<text text-anchor="middle" x="807.89" y="-149.97" font-family="Times,serif" font-size="14.00">Publish (old version)</text>
</g>
<!-- archived&#45;&gt;archived -->
<g id="edge19" class="edge">
<title>archived&#45;&gt;archived</title>
<path fill="none" stroke="orange" d="M984.09,-183.21C980.98,-193.03 986.06,-202.17 999.33,-202.17 1007.63,-202.17 1012.72,-198.6 1014.62,-193.52"/>
<polygon fill="orange" stroke="orange" points="1018.12,-193.19 1014.57,-183.21 1011.12,-193.22 1018.12,-193.19"/>
<text text-anchor="middle" x="999.33" y="-205.97" font-family="Times,serif" font-size="14.00">Update</text>
</g>
<!-- archived&#45;&gt;withdrawn -->
<g id="edge18" class="edge">
<title>archived&#45;&gt;withdrawn</title>
<path fill="none" stroke="black" d="M993.5,-148.22C986.21,-125.05 970.01,-85.53 940.39,-67.17 917.56,-53.03 888.04,-49.96 862.75,-50.78"/>
<polygon fill="black" stroke="black" points="862.36,-47.3 852.56,-51.32 862.74,-54.29 862.36,-47.3"/>
<text text-anchor="middle" x="911.89" y="-70.97" font-family="Times,serif" font-size="14.00">Unarchive</text>
</g>
<!-- withdrawn&#45;&gt;published -->
<g id="edge14" class="edge">
<title>withdrawn&#45;&gt;published</title>
<path fill="none" stroke="green" d="M781.17,-43.19C767.19,-35.7 749.33,-27.2 732.39,-22.17 638.89,5.59 610.91,1.39 513.6,-5.17 454.08,-9.18 434.27,2.85 380.6,-23.17 358.54,-33.86 338.86,-53.57 325.27,-69.66"/>
<polygon fill="green" stroke="green" points="322.34,-67.72 318.74,-77.68 327.77,-72.14 322.34,-67.72"/>
<text text-anchor="middle" x="556.49" y="-8.97" font-family="Times,serif" font-size="14.00">Publish</text>
</g>
<!-- withdrawn&#45;&gt;modified -->
<g id="edge15" class="edge">
<title>withdrawn&#45;&gt;modified</title>
<path fill="none" stroke="green" d="M762.09,-52.31C723.45,-48.42 666.31,-45.47 617.39,-54.17 610.43,-55.41 603.21,-57.4 596.31,-59.68"/>
<polygon fill="green" stroke="green" points="594.71,-56.54 586.47,-63.2 597.06,-63.13 594.71,-56.54"/>
<text text-anchor="middle" x="674.89" y="-57.97" font-family="Times,serif" font-size="14.00">Publish (old version)</text>
</g>
<!-- withdrawn&#45;&gt;archived -->
<g id="edge16" class="edge">
<title>withdrawn&#45;&gt;archived</title>
<path fill="none" stroke="red" d="M843.8,-70.31C871.15,-80.58 909.59,-96.7 940.39,-116.17 952.26,-123.68 964.21,-133.51 974.15,-142.47"/>
<polygon fill="red" stroke="red" points="971.93,-145.19 981.65,-149.41 976.69,-140.05 971.93,-145.19"/>
<text text-anchor="middle" x="911.89" y="-119.97" font-family="Times,serif" font-size="14.00">Archive</text>
</g>
<!-- withdrawn&#45;&gt;withdrawn -->
<g id="edge13" class="edge">
<title>withdrawn&#45;&gt;withdrawn</title>
<path fill="none" stroke="orange" d="M789.61,-74.83C785.54,-84.79 791.64,-94.17 807.89,-94.17 818.3,-94.17 824.54,-90.32 826.61,-84.94"/>
<polygon fill="orange" stroke="orange" points="830.11,-84.67 826.17,-74.83 823.11,-84.98 830.11,-84.67"/>
<text text-anchor="middle" x="807.89" y="-97.97" font-family="Times,serif" font-size="14.00">Update</text>
</g>
</g>
</svg>
