<?xml version="1.0" encoding="UTF-8" standalone="no"?>
<!DOCTYPE svg PUBLIC "-//W3C//DTD SVG 1.1//EN"
 "http://www.w3.org/Graphics/SVG/1.1/DTD/svg11.dtd">
<!-- Generated by graphviz version 2.47.2 (20210527.0053)
 -->
<!-- Title: G Pages: 1 -->
<svg width="915pt" height="301pt"
 viewBox="0.00 0.00 914.86 300.57" xmlns="http://www.w3.org/2000/svg" xmlns:xlink="http://www.w3.org/1999/xlink">
<g id="graph0" class="graph" transform="scale(1 1) rotate(0) translate(4 296.57)">
<title>G</title>
<polygon fill="white" stroke="transparent" points="-4,4 -4,-296.57 910.86,-296.57 910.86,4 -4,4"/>
<!-- start -->
<g id="node1" class="node">
<title>start</title>
<ellipse fill="none" stroke="black" cx="22" cy="-190.57" rx="18" ry="18"/>
<ellipse fill="none" stroke="black" cx="22" cy="-190.57" rx="22" ry="22"/>
</g>
<!-- draft -->
<g id="node2" class="node">
<title>draft</title>
<ellipse fill="none" stroke="black" cx="143.3" cy="-190.57" rx="27.1" ry="18"/>
<text text-anchor="middle" x="143.3" y="-186.87" font-family="Times,serif" font-size="14.00">draft</text>
</g>
<!-- start&#45;&gt;draft -->
<g id="edge1" class="edge">
<title>start&#45;&gt;draft</title>
<path fill="none" stroke="black" d="M44.05,-190.57C61.03,-190.57 85.31,-190.57 105.49,-190.57"/>
<polygon fill="black" stroke="black" points="105.6,-194.07 115.6,-190.57 105.6,-187.07 105.6,-194.07"/>
<text text-anchor="middle" x="80" y="-194.37" font-family="Times,serif" font-size="14.00">Create</text>
</g>
<!-- draft&#45;&gt;draft -->
<g id="edge2" class="edge">
<title>draft&#45;&gt;draft</title>
<path fill="none" stroke="orange" d="M132.4,-207.23C129.98,-217.19 133.61,-226.57 143.3,-226.57 149.5,-226.57 153.22,-222.72 154.46,-217.33"/>
<polygon fill="orange" stroke="orange" points="157.96,-217.13 154.2,-207.23 150.96,-217.32 157.96,-217.13"/>
<text text-anchor="middle" x="143.3" y="-230.37" font-family="Times,serif" font-size="14.00">Update</text>
</g>
<!-- published -->
<g id="node3" class="node">
<title>published</title>
<ellipse fill="none" stroke="black" cx="292.44" cy="-87.57" rx="44.69" ry="18"/>
<text text-anchor="middle" x="292.44" y="-83.87" font-family="Times,serif" font-size="14.00">published</text>
</g>
<!-- draft&#45;&gt;published -->
<g id="edge3" class="edge">
<title>draft&#45;&gt;published</title>
<path fill="none" stroke="green" d="M152.43,-173.44C160,-159.15 172.52,-139.14 188.6,-126.57 204.53,-114.1 224.89,-105.27 243.29,-99.2"/>
<polygon fill="green" stroke="green" points="244.47,-102.5 252.98,-96.2 242.39,-95.82 244.47,-102.5"/>
<text text-anchor="middle" x="209.1" y="-130.37" font-family="Times,serif" font-size="14.00">Publish</text>
</g>
<!-- modified -->
<g id="node4" class="node">
<title>modified</title>
<ellipse fill="none" stroke="black" cx="486.53" cy="-68.57" rx="42.49" ry="18"/>
<text text-anchor="middle" x="486.53" y="-64.87" font-family="Times,serif" font-size="14.00">modified</text>
</g>
<!-- draft&#45;&gt;modified -->
<g id="edge4" class="edge">
<title>draft&#45;&gt;modified</title>
<path fill="none" stroke="green" d="M170.86,-189.32C222.92,-185.89 340.77,-173.17 426.29,-126.57 441.38,-118.34 455.29,-105.16 465.83,-93.45"/>
<polygon fill="green" stroke="green" points="468.68,-95.51 472.56,-85.65 463.38,-90.93 468.68,-95.51"/>
<text text-anchor="middle" x="292.44" y="-183.37" font-family="Times,serif" font-size="14.00">Publish (old)</text>
</g>
<!-- archived -->
<g id="node5" class="node">
<title>archived</title>
<ellipse fill="none" stroke="black" cx="865.92" cy="-158.57" rx="40.89" ry="18"/>
<text text-anchor="middle" x="865.92" y="-154.87" font-family="Times,serif" font-size="14.00">archived</text>
</g>
<!-- draft&#45;&gt;archived -->
<g id="edge5" class="edge">
<title>draft&#45;&gt;archived</title>
<path fill="none" stroke="red" d="M155.41,-206.92C163.51,-217.76 175.35,-231.59 188.6,-240.57 228.81,-267.82 242.86,-277.57 291.44,-277.57 291.44,-277.57 291.44,-277.57 684.88,-277.57 741.58,-277.57 760.99,-273.74 806.97,-240.57 826.71,-226.32 842.16,-203.22 852.12,-185.16"/>
<polygon fill="red" stroke="red" points="855.26,-186.72 856.83,-176.25 849.06,-183.45 855.26,-186.72"/>
<text text-anchor="middle" x="486.53" y="-281.37" font-family="Times,serif" font-size="14.00">Archive</text>
</g>
<!-- published&#45;&gt;modified -->
<g id="edge6" class="edge">
<title>published&#45;&gt;modified</title>
<path fill="none" stroke="orange" d="M327.55,-98.77C354.7,-106 393.46,-112.54 426.29,-103.57 436.85,-100.68 447.45,-95.37 456.7,-89.74"/>
<polygon fill="orange" stroke="orange" points="458.61,-92.68 465.12,-84.32 454.81,-86.8 458.61,-92.68"/>
<text text-anchor="middle" x="390.79" y="-111.37" font-family="Times,serif" font-size="14.00">Update</text>
</g>
<!-- published&#45;&gt;modified -->
<g id="edge7" class="edge">
<title>published&#45;&gt;modified</title>
<path fill="none" stroke="green" d="M336.07,-83.35C365.37,-80.45 404.38,-76.59 435.21,-73.54"/>
<polygon fill="green" stroke="green" points="435.71,-77.01 445.32,-72.54 435.02,-70.05 435.71,-77.01"/>
<text text-anchor="middle" x="390.79" y="-84.37" font-family="Times,serif" font-size="14.00">Publish (old)</text>
</g>
<!-- withdrawn -->
<g id="node6" class="node">
<title>withdrawn</title>
<ellipse fill="none" stroke="black" cx="683.88" cy="-50.57" rx="48.19" ry="18"/>
<text text-anchor="middle" x="683.88" y="-46.87" font-family="Times,serif" font-size="14.00">withdrawn</text>
</g>
<!-- published&#45;&gt;withdrawn -->
<g id="edge8" class="edge">
<title>published&#45;&gt;withdrawn</title>
<path fill="none" stroke="purple" d="M314.18,-71.59C325.73,-63.36 340.7,-53.78 355.29,-47.57 392.67,-31.63 403.92,-31.26 444.29,-26.57 509.34,-19 584.53,-29.79 632.84,-39.24"/>
<polygon fill="purple" stroke="purple" points="632.24,-42.69 642.73,-41.23 633.62,-35.83 632.24,-42.69"/>
<text text-anchor="middle" x="486.53" y="-30.37" font-family="Times,serif" font-size="14.00">Unpublish</text>
</g>
<!-- modified&#45;&gt;published -->
<g id="edge10" class="edge">
<title>modified&#45;&gt;published</title>
<path fill="none" stroke="green" d="M450.81,-58.84C424.32,-52.91 387.08,-47.83 355.29,-55.57 345.07,-58.05 334.65,-62.55 325.35,-67.39"/>
<polygon fill="green" stroke="green" points="323.54,-64.4 316.47,-72.3 326.92,-70.53 323.54,-64.4"/>
<text text-anchor="middle" x="390.79" y="-59.37" font-family="Times,serif" font-size="14.00">Publish</text>
</g>
<!-- modified&#45;&gt;modified -->
<g id="edge9" class="edge">
<title>modified&#45;&gt;modified</title>
<path fill="none" stroke="orange" d="M478.08,-86.35C476.65,-95.88 479.47,-104.57 486.53,-104.57 490.84,-104.57 493.57,-101.34 494.72,-96.66"/>
<polygon fill="orange" stroke="orange" points="498.23,-96.43 494.98,-86.35 491.23,-96.26 498.23,-96.43"/>
<text text-anchor="middle" x="486.53" y="-108.37" font-family="Times,serif" font-size="14.00">Update</text>
</g>
<!-- modified&#45;&gt;modified -->
<g id="edge11" class="edge">
<title>modified&#45;&gt;modified</title>
<path fill="none" stroke="green" d="M472.78,-85.71C464.69,-103.15 469.28,-122.57 486.53,-122.57 500.56,-122.57 506.21,-109.75 503.5,-95.59"/>
<polygon fill="green" stroke="green" points="506.71,-94.13 500.29,-85.71 500.05,-96.3 506.71,-94.13"/>
<text text-anchor="middle" x="486.53" y="-126.37" font-family="Times,serif" font-size="14.00">Publish (old)</text>
</g>
<!-- modified&#45;&gt;withdrawn -->
<g id="edge12" class="edge">
<title>modified&#45;&gt;withdrawn</title>
<path fill="none" stroke="purple" d="M528.75,-69.75C554.45,-69.96 588.16,-69.28 617.78,-65.57 623.17,-64.89 628.77,-63.96 634.33,-62.89"/>
<polygon fill="purple" stroke="purple" points="635.13,-66.3 644.21,-60.84 633.71,-59.44 635.13,-66.3"/>
<text text-anchor="middle" x="582.28" y="-73.37" font-family="Times,serif" font-size="14.00">Unpublish</text>
</g>
<!-- archived&#45;&gt;draft -->
<g id="edge17" class="edge">
<title>archived&#45;&gt;draft</title>
<path fill="none" stroke="black" d="M842.08,-173.32C808.88,-193.32 744.68,-226.57 684.88,-226.57 291.44,-226.57 291.44,-226.57 291.44,-226.57 251.1,-226.57 206.26,-213.64 176.81,-203.28"/>
<polygon fill="black" stroke="black" points="177.66,-199.86 167.07,-199.74 175.27,-206.44 177.66,-199.86"/>
<text text-anchor="middle" x="486.53" y="-230.37" font-family="Times,serif" font-size="14.00">Unarchive</text>
</g>
<!-- archived&#45;&gt;published -->
<g id="edge20" class="edge">
<title>archived&#45;&gt;published</title>
<path fill="none" stroke="green" d="M826.48,-163.76C751.96,-172.74 582.94,-187.85 444.29,-161.57 399.61,-153.1 353.42,-127.51 324.12,-108.78"/>
<polygon fill="green" stroke="green" points="325.87,-105.75 315.58,-103.22 322.05,-111.62 325.87,-105.75"/>
<text text-anchor="middle" x="582.28" y="-179.37" font-family="Times,serif" font-size="14.00">Publish</text>
</g>
<!-- archived&#45;&gt;modified -->
<g id="edge21" class="edge">
<title>archived&#45;&gt;modified</title>
<path fill="none" stroke="green" d="M827.28,-151.99C767.32,-141.13 646.67,-117.72 546.78,-88.57 541.1,-86.91 535.16,-85.05 529.33,-83.16"/>
<polygon fill="green" stroke="green" points="530.26,-79.78 519.67,-79.96 528.06,-86.42 530.26,-79.78"/>
<text text-anchor="middle" x="683.88" y="-136.37" font-family="Times,serif" font-size="14.00">Publish (old)</text>
</g>
<!-- archived&#45;&gt;archived -->
<g id="edge19" class="edge">
<title>archived&#45;&gt;archived</title>
<path fill="none" stroke="orange" d="M850.68,-175.6C847.57,-185.42 852.65,-194.57 865.92,-194.57 874.21,-194.57 879.31,-191 881.2,-185.92"/>
<polygon fill="orange" stroke="orange" points="884.7,-185.59 881.16,-175.6 877.7,-185.62 884.7,-185.59"/>
<text text-anchor="middle" x="865.92" y="-198.37" font-family="Times,serif" font-size="14.00">Update</text>
</g>
<!-- archived&#45;&gt;withdrawn -->
<g id="edge18" class="edge">
<title>archived&#45;&gt;withdrawn</title>
<path fill="none" stroke="black" d="M860.15,-140.43C852.93,-117.02 836.81,-77.08 806.97,-58.57 786.94,-46.13 761.32,-42.98 738.73,-43.39"/>
<polygon fill="black" stroke="black" points="738.44,-39.9 728.6,-43.81 738.73,-46.89 738.44,-39.9"/>
<text text-anchor="middle" x="778.47" y="-62.37" font-family="Times,serif" font-size="14.00">Unarchive</text>
</g>
<!-- withdrawn&#45;&gt;published -->
<g id="edge14" class="edge">
<title>withdrawn&#45;&gt;published</title>
<path fill="none" stroke="green" d="M653.55,-36.42C642.52,-31.51 629.76,-26.31 617.78,-22.57 543.79,0.56 521.34,3.98 444.29,-4.57 403.99,-9.04 390.71,-4.85 355.29,-24.57 338.54,-33.89 323.4,-49.13 312.29,-62.29"/>
<polygon fill="green" stroke="green" points="309.5,-60.18 305.91,-70.15 314.93,-64.59 309.5,-60.18"/>
<text text-anchor="middle" x="486.53" y="-8.37" font-family="Times,serif" font-size="14.00">Publish</text>
</g>
<!-- withdrawn&#45;&gt;modified -->
<g id="edge15" class="edge">
<title>withdrawn&#45;&gt;modified</title>
<path fill="none" stroke="green" d="M638.4,-44.66C611.65,-42.25 577.02,-41.13 546.78,-46.57 539.89,-47.8 532.75,-49.79 525.91,-52.08"/>
<polygon fill="green" stroke="green" points="524.4,-48.91 516.19,-55.59 526.78,-55.49 524.4,-48.91"/>
<text text-anchor="middle" x="582.28" y="-50.37" font-family="Times,serif" font-size="14.00">Publish (old)</text>
</g>
<!-- withdrawn&#45;&gt;archived -->
<g id="edge16" class="edge">
<title>withdrawn&#45;&gt;archived</title>
<path fill="none" stroke="red" d="M717.76,-63.34C743.08,-73.84 778.47,-89.98 806.97,-108.57 818.74,-116.24 830.67,-126.1 840.63,-135.04"/>
<polygon fill="red" stroke="red" points="838.41,-137.76 848.14,-141.95 843.15,-132.6 838.41,-137.76"/>
<text text-anchor="middle" x="778.47" y="-112.37" font-family="Times,serif" font-size="14.00">Archive</text>
</g>
<!-- withdrawn&#45;&gt;withdrawn -->
<g id="edge13" class="edge">
<title>withdrawn&#45;&gt;withdrawn</title>
<path fill="none" stroke="orange" d="M667.22,-67.6C663.82,-77.42 669.37,-86.57 683.88,-86.57 692.94,-86.57 698.51,-83 700.58,-77.92"/>
<polygon fill="orange" stroke="orange" points="704.08,-77.59 700.53,-67.6 697.08,-77.62 704.08,-77.59"/>
<text text-anchor="middle" x="683.88" y="-90.37" font-family="Times,serif" font-size="14.00">Update</text>
</g>
</g>
</svg>
